<?xml version="1.0" encoding="UTF-8" standalone="no"?><svg width="48" height="38" viewBox="0 0 48 38" fill="none" xmlns="http://www.w3.org/2000/svg">
<path d="M45.7044 27.7059C45.8958 26.6594 45.8958 25.5906 45.7044 24.5441L47.6038 23.4383C47.8246 23.3121 47.9203 23.0523 47.8467 22.8074C47.3535 21.2043 46.5069 19.7496 45.4026 18.5473C45.2333 18.3617 44.9609 18.3172 44.7401 18.4434L42.8407 19.5492C42.0383 18.859 41.1181 18.3246 40.1243 17.9684V15.7566C40.1243 15.5043 39.9476 15.2816 39.7046 15.2297C38.063 14.8586 36.3919 14.8734 34.8312 15.2297C34.5882 15.2816 34.4116 15.5043 34.4116 15.7566V17.9684C33.4177 18.3246 32.4975 18.859 31.6951 19.5492L29.7958 18.4434C29.5823 18.3172 29.3025 18.3617 29.1332 18.5473C28.0289 19.7496 27.1823 21.2043 26.6891 22.8074C26.6155 23.0523 26.7185 23.3121 26.932 23.4383L28.8314 24.5441C28.64 25.5906 28.64 26.6594 28.8314 27.7059L26.932 28.8117C26.7112 28.9379 26.6155 29.1977 26.6891 29.4426C27.1823 31.0457 28.0289 32.493 29.1332 33.7027C29.3025 33.8883 29.5749 33.9328 29.7958 33.8066L31.6951 32.7008C32.4975 33.391 33.4177 33.9254 34.4116 34.2816V36.4934C34.4116 36.7457 34.5882 36.9684 34.8312 37.0203C36.4728 37.3914 38.1439 37.3766 39.7046 37.0203C39.9476 36.9684 40.1243 36.7457 40.1243 36.4934V34.2816C41.1181 33.9254 42.0383 33.391 42.8407 32.7008L44.7401 33.8066C44.9535 33.9328 45.2333 33.8883 45.4026 33.7027C46.5069 32.5004 47.3535 31.0457 47.8467 29.4426C47.9203 29.1977 47.8173 28.9379 47.6038 28.8117L45.7044 27.7059ZM37.2753 29.7246C35.3023 29.7246 33.7048 28.1066 33.7048 26.125C33.7048 24.1434 35.3097 22.5254 37.2753 22.5254C39.2408 22.5254 40.8457 24.1434 40.8457 26.125C40.8457 28.1066 39.2482 29.7246 37.2753 29.7246ZM17.2514 19C22.4561 19 26.6744 14.7473 26.6744 9.5C26.6744 4.25273 22.4561 0 17.2514 0C12.0466 0 7.82836 4.25273 7.82836 9.5C7.82836 14.7473 12.0466 19 17.2514 19ZM32.0632 35.8105C31.8938 35.7215 31.7245 35.6176 31.5626 35.5211L30.981 35.8625C30.5393 36.1148 30.0387 36.2559 29.5381 36.2559C28.7357 36.2559 27.9627 35.9145 27.4106 35.3207C26.0634 33.8512 25.0327 32.0625 24.4511 30.1551C24.0462 28.8414 24.591 27.4535 25.7689 26.7633L26.3505 26.4219C26.3431 26.2289 26.3431 26.0359 26.3505 25.843L25.7689 25.5016C24.591 24.8188 24.0462 23.4234 24.4511 22.1098C24.5174 21.8945 24.6131 21.6793 24.6867 21.4641C24.407 21.4418 24.1346 21.375 23.8475 21.375H22.6181C20.9838 22.132 19.1654 22.5625 17.2514 22.5625C15.3373 22.5625 13.5263 22.132 11.8847 21.375H10.6553C5.19287 21.375 0.761108 25.843 0.761108 31.35V34.4375C0.761108 36.4043 2.34388 38 4.29474 38H30.208C30.9515 38 31.6435 37.7625 32.2104 37.3691C32.1221 37.0871 32.0632 36.7977 32.0632 36.4934V35.8105Z" fill="white"/>
</svg>
